<svg width="24" height="24" viewBox="0 0 24 24" fill="none" xmlns="http://www.w3.org/2000/svg"><g clip-path="url(#clip0_677_858)"><path fill-rule="evenodd" clip-rule="evenodd" d="M15.806 6.21117L13.4774 10.2012C13.2107 10.6758 12.914 11.1352 12.558 11.6838C12.914 11.4172 13.388 11.1352 13.9374 10.7645L17.956 8.15517L15.806 6.21117ZM15.524 5.6485C15.346 5.6485 15.1534 5.6485 15.0647 5.6485C14.4114 5.6485 13.848 5.92984 13.4774 6.3005L3.70404 16.3412C3.52604 16.4298 3.33337 16.7118 3.33337 17.1718C3.33337 17.4532 3.42204 17.7358 3.61471 18.1058C3.98537 18.6692 4.44537 19.2185 4.83071 19.4998C5.29071 19.9598 6.31404 20.8052 7.24804 20.7158C7.61937 20.7158 7.90071 20.6118 8.07937 20.3305L17.956 10.3938C18.416 9.8305 18.6087 9.0885 18.5054 8.43584L15.524 5.6485ZM21.2934 3.7945C21.2934 3.5125 21.2047 3.2305 20.9227 2.94917C20.7447 2.7705 20.3734 2.6665 20.092 2.6665C19.7214 2.6665 19.4394 2.7705 19.1574 3.0525L16.3694 5.92984L18.1347 7.60517L21.026 4.71317C21.2047 4.4465 21.3974 4.16517 21.2934 3.7945Z" fill="#d2d5d9"></path></g></svg>