<svg width="24" height="24" viewBox="0 0 24 24" fill="none" xmlns="http://www.w3.org/2000/svg"><g clip-path="url(#clip0_677_851)"><path fill-rule="evenodd" clip-rule="evenodd" d="M19.2281 8.58073C19.3111 8.75379 19.3935 8.92561 19.4902 9.09866C19.8346 10.0508 20 11.0029 20 12.0375C20 16.4533 16.4584 20 12.0483 20C9.62304 20 7.55583 18.9648 6.08084 17.3154C5.99845 17.233 5.90181 17.1436 5.8188 17.0605C7.63822 15.0663 9.71906 13.342 12.0483 11.8651C14.2116 10.4856 16.6374 9.44354 19.2281 8.58073ZM18.3602 7.1938C18.5393 7.37368 18.6223 7.54611 18.7047 7.71855C18.7871 7.80167 18.8837 7.9741 18.9667 8.06342C16.3754 8.92561 13.9501 10.0508 11.7863 11.4371C9.45764 12.8172 7.37618 14.639 5.47437 16.6257C5.39198 16.4533 5.21295 16.2808 5.12994 16.1084C5.04755 16.0185 5.04755 15.9291 4.95091 15.846C6.86635 13.6868 9.01657 11.8651 11.4418 10.3957C13.5227 9.09866 15.8519 7.9741 18.3602 7.1938ZM17.0643 5.81431C17.2439 5.98674 17.4093 6.15918 17.6707 6.33161C17.7538 6.42155 17.9328 6.59399 18.0158 6.76643C15.5075 7.54611 13.2613 8.58073 11.1798 9.96767C8.76816 11.4371 6.59068 13.1689 4.68886 15.3287C4.60647 15.0663 4.52346 14.7215 4.44107 14.4591C4.35868 14.3766 4.35868 14.2041 4.26204 14.1142C6.08084 12.0375 8.16168 10.3125 10.4909 8.92561C12.4894 7.62923 14.722 6.67711 17.0643 5.81431ZM12.0483 4C13.6881 4 15.2455 4.51731 16.5408 5.46943C14.2946 6.24229 12.1307 7.28436 10.1465 8.49141C7.98265 9.87835 5.90181 11.5202 4.17903 13.4245C4.09664 12.9896 4 12.4723 4 12.0375C4 7.62923 7.63822 4 12.0483 4Z" fill="#d2d5d9"></path></g></svg>