<svg width="218" height="138" viewBox="0 0 218 138" fill="none" xmlns="http://www.w3.org/2000/svg">
  <path d="M4.6714 118.733L11.3259 111.269M4.26648 111.674L11.7309 118.328" stroke="#757a82" stroke-width="1.5" stroke-linecap="round"/>
  <mask id="path-2-inside-1_203_694" fill="white">
  <path fill-rule="evenodd" clip-rule="evenodd" d="M61 105.072L66.0005 109.035L74.9949 102H75.0509L84.0004 109.092L93.023 102.035L102 109.15L111.023 102.093L120 109.207L129.023 102.15L138 109.265L147.023 102.208L154 107.737V138H61V105.072Z"/>
  </mask>
  <path fill-rule="evenodd" clip-rule="evenodd" d="M61 105.072L66.0005 109.035L74.9949 102H75.0509L84.0004 109.092L93.023 102.035L102 109.15L111.023 102.093L120 109.207L129.023 102.15L138 109.265L147.023 102.208L154 107.737V138H61V105.072Z" fill="#757a82"/>
  <path d="M66.0005 109.035L64.7583 110.602L65.9924 111.58L67.2327 110.61L66.0005 109.035ZM61 105.072L62.2422 103.505L59 100.935V105.072H61ZM74.9949 102V100H74.3057L73.7628 100.425L74.9949 102ZM75.0509 102L76.2931 100.433L75.7473 100H75.0509V102ZM84.0004 109.092L82.7582 110.66L83.9923 111.638L85.2326 110.668L84.0004 109.092ZM93.023 102.035L94.2652 100.468L93.0311 99.49L91.7909 100.46L93.023 102.035ZM102 109.15L100.758 110.717L101.992 111.695L103.232 110.725L102 109.15ZM111.023 102.093L112.265 100.525L111.031 99.5475L109.791 100.518L111.023 102.093ZM120 109.207L118.758 110.775L119.992 111.753L121.232 110.783L120 109.207ZM129.023 102.15L130.265 100.583L129.031 99.605L127.791 100.575L129.023 102.15ZM138 109.265L136.758 110.832L137.992 111.81L139.232 110.84L138 109.265ZM147.023 102.208L148.265 100.64L147.031 99.6625L145.791 100.633L147.023 102.208ZM154 107.737H156V106.77L155.242 106.17L154 107.737ZM154 138V140H156V138H154ZM61 138H59V140H61V138ZM67.2427 107.467L62.2422 103.505L59.7578 106.64L64.7583 110.602L67.2427 107.467ZM73.7628 100.425L64.7684 107.459L67.2327 110.61L76.2271 103.575L73.7628 100.425ZM74.9949 104H75.0509V100H74.9949V104ZM73.8087 103.567L82.7582 110.66L85.2426 107.525L76.2931 100.433L73.8087 103.567ZM85.2326 110.668L94.2552 103.611L91.7909 100.46L82.7683 107.517L85.2326 110.668ZM91.7808 103.603L100.758 110.717L103.243 107.582L94.2652 100.468L91.7808 103.603ZM103.232 110.725L112.255 103.668L109.791 100.518L100.768 107.574L103.232 110.725ZM109.781 103.66L118.758 110.775L121.242 107.64L112.265 100.525L109.781 103.66ZM121.232 110.783L130.255 103.726L127.791 100.575L118.768 107.632L121.232 110.783ZM127.781 103.718L136.758 110.832L139.242 107.697L130.265 100.583L127.781 103.718ZM139.232 110.84L148.255 103.783L145.791 100.633L136.768 107.689L139.232 110.84ZM145.781 103.775L152.758 109.305L155.242 106.17L148.265 100.64L145.781 103.775ZM152 107.737V138H156V107.737H152ZM154 136H61V140H154V136ZM63 138V105.072H59V138H63Z" fill="#757a82" mask="url(#path-2-inside-1_203_694)"/>
  <path d="M138.629 31.5882L139.547 18.6671C139.573 18.2976 140.029 18.1392 140.279 18.413L152.311 31.6069C152.561 31.8807 152.361 32.3202 151.991 32.3124L139.04 32.0396C138.799 32.0345 138.612 31.8287 138.629 31.5882Z" fill="#D9D9D9" stroke="#757a82" stroke-width="2"/>
  <mask id="path-5-inside-2_203_694" fill="white">
  <path fill-rule="evenodd" clip-rule="evenodd" d="M66 17H140.809L154 31.5069V97C154 98.7233 153.128 100.243 151.801 101.142L144 95L135.109 102H134.891L126 95L117.109 102H116.891L108 95L99.1088 102H98.8912L90 95L81.1088 102H80.8912L72 95L63.7724 101.478C62.1289 100.658 61 98.961 61 97V22C61 19.2386 63.2386 17 66 17ZM85.5 54C88.5376 54 91 51.5376 91 48.5C91 45.4624 88.5376 43 85.5 43C82.4624 43 80 45.4624 80 48.5C80 51.5376 82.4624 54 85.5 54ZM135 48.5C135 51.5376 132.538 54 129.5 54C126.462 54 124 51.5376 124 48.5C124 45.4624 126.462 43 129.5 43C132.538 43 135 45.4624 135 48.5ZM122.787 78.2519C123.143 79.2974 122.436 80.3616 121.354 80.5853L120.745 80.7112C119.664 80.9349 118.621 80.2296 118.216 79.2019C117.477 77.3245 116.257 75.6534 114.657 74.3532C112.53 72.6253 109.858 71.6539 107.073 71.5967C104.287 71.5394 101.553 72.3997 99.3124 74.038C97.6093 75.2833 96.2678 76.9227 95.4028 78.7909C94.9465 79.7764 93.8894 80.4106 92.8362 80.1457L92.2601 80.0009C91.1708 79.727 90.51 78.6034 90.9424 77.5667C92.113 74.7603 94.0532 72.2971 96.5669 70.459C99.6438 68.209 103.399 67.0275 107.225 67.1061C111.05 67.1847 114.72 68.5188 117.641 70.892C120.035 72.8378 121.81 75.3887 122.787 78.2519Z"/>
  </mask>
  <path fill-rule="evenodd" clip-rule="evenodd" d="M66 17H140.809L154 31.5069V97C154 98.7233 153.128 100.243 151.801 101.142L144 95L135.109 102H134.891L126 95L117.109 102H116.891L108 95L99.1088 102H98.8912L90 95L81.1088 102H80.8912L72 95L63.7724 101.478C62.1289 100.658 61 98.961 61 97V22C61 19.2386 63.2386 17 66 17ZM85.5 54C88.5376 54 91 51.5376 91 48.5C91 45.4624 88.5376 43 85.5 43C82.4624 43 80 45.4624 80 48.5C80 51.5376 82.4624 54 85.5 54ZM135 48.5C135 51.5376 132.538 54 129.5 54C126.462 54 124 51.5376 124 48.5C124 45.4624 126.462 43 129.5 43C132.538 43 135 45.4624 135 48.5ZM122.787 78.2519C123.143 79.2974 122.436 80.3616 121.354 80.5853L120.745 80.7112C119.664 80.9349 118.621 80.2296 118.216 79.2019C117.477 77.3245 116.257 75.6534 114.657 74.3532C112.53 72.6253 109.858 71.6539 107.073 71.5967C104.287 71.5394 101.553 72.3997 99.3124 74.038C97.6093 75.2833 96.2678 76.9227 95.4028 78.7909C94.9465 79.7764 93.8894 80.4106 92.8362 80.1457L92.2601 80.0009C91.1708 79.727 90.51 78.6034 90.9424 77.5667C92.113 74.7603 94.0532 72.2971 96.5669 70.459C99.6438 68.209 103.399 67.0275 107.225 67.1061C111.05 67.1847 114.72 68.5188 117.641 70.892C120.035 72.8378 121.81 75.3887 122.787 78.2519Z" fill="#757a82"/>
  <path d="M140.809 17L142.288 15.6545L141.693 15H140.809V17ZM154 31.5069H156V30.7336L155.48 30.1614L154 31.5069ZM151.801 101.142L150.564 102.713L151.713 103.618L152.923 102.798L151.801 101.142ZM144 95L145.237 93.4286L144 92.4545L142.763 93.4286L144 95ZM135.109 102V104H135.802L136.346 103.571L135.109 102ZM134.891 102L133.654 103.571L134.198 104H134.891V102ZM126 95L127.237 93.4286L126 92.4545L124.763 93.4286L126 95ZM117.109 102V104H117.802L118.346 103.571L117.109 102ZM116.891 102L115.654 103.571L116.198 104H116.891V102ZM108 95L109.237 93.4286L108 92.4545L106.763 93.4286L108 95ZM99.1088 102V104H99.8016L100.346 103.571L99.1088 102ZM98.8912 102L97.654 103.571L98.1984 104H98.8912V102ZM90 95L91.2372 93.4286L90 92.4545L88.7628 93.4286L90 95ZM81.1088 102V104H81.8016L82.346 103.571L81.1088 102ZM80.8912 102L79.654 103.571L80.1984 104H80.8912V102ZM72 95L73.2372 93.4286L72 92.4545L70.7628 93.4286L72 95ZM63.7724 101.478L62.8801 103.268L64.0141 103.833L65.0096 103.049L63.7724 101.478ZM121.354 80.5853L121.759 82.5439L121.759 82.5438L121.354 80.5853ZM122.787 78.2519L120.894 78.8977L120.894 78.8977L122.787 78.2519ZM120.745 80.7112L120.34 78.7527L120.34 78.7527L120.745 80.7112ZM118.216 79.2019L120.077 78.4688L120.077 78.4688L118.216 79.2019ZM114.657 74.3532L113.395 75.9053L113.395 75.9053L114.657 74.3532ZM99.3124 74.038L100.493 75.6524L100.493 75.6524L99.3124 74.038ZM95.4028 78.7909L93.5879 77.9506L93.5879 77.9506L95.4028 78.7909ZM92.8362 80.1457L93.3239 78.2061L93.3239 78.2061L92.8362 80.1457ZM92.2601 80.0009L92.7479 78.0613L92.7479 78.0613L92.2601 80.0009ZM90.9424 77.5667L92.7882 78.3367L92.7882 78.3367L90.9424 77.5667ZM96.5669 70.459L97.7475 72.0734L97.7475 72.0734L96.5669 70.459ZM107.225 67.1061L107.184 69.1057L107.184 69.1057L107.225 67.1061ZM117.641 70.892L118.902 69.3398L118.902 69.3398L117.641 70.892ZM140.809 15H66V19H140.809V15ZM155.48 30.1614L142.288 15.6545L139.329 18.3455L152.52 32.8525L155.48 30.1614ZM156 97V31.5069H152V97H156ZM152.923 102.798C154.776 101.542 156 99.4145 156 97H152C152 98.0322 151.481 98.9436 150.679 99.4864L152.923 102.798ZM142.763 96.5714L150.564 102.713L153.039 99.5706L145.237 93.4286L142.763 96.5714ZM136.346 103.571L145.237 96.5714L142.763 93.4286L133.872 100.429L136.346 103.571ZM134.891 104H135.109V100H134.891V104ZM124.763 96.5714L133.654 103.571L136.128 100.429L127.237 93.4286L124.763 96.5714ZM118.346 103.571L127.237 96.5714L124.763 93.4286L115.872 100.429L118.346 103.571ZM116.891 104H117.109V100H116.891V104ZM106.763 96.5714L115.654 103.571L118.128 100.429L109.237 93.4286L106.763 96.5714ZM100.346 103.571L109.237 96.5714L106.763 93.4286L97.8716 100.429L100.346 103.571ZM98.8912 104H99.1088V100H98.8912V104ZM88.7628 96.5714L97.654 103.571L100.128 100.429L91.2372 93.4286L88.7628 96.5714ZM82.346 103.571L91.2372 96.5714L88.7628 93.4286L79.8716 100.429L82.346 103.571ZM80.8912 104H81.1088V100H80.8912V104ZM70.7628 96.5714L79.654 103.571L82.1284 100.429L73.2372 93.4286L70.7628 96.5714ZM65.0096 103.049L73.2372 96.5714L70.7628 93.4286L62.5352 99.9061L65.0096 103.049ZM59 97C59 99.7484 60.5842 102.123 62.8801 103.268L64.6646 99.6876C63.6737 99.1937 63 98.1737 63 97H59ZM59 22V97H63V22H59ZM66 15C62.134 15 59 18.134 59 22H63C63 20.3431 64.3431 19 66 19V15ZM89 48.5C89 50.433 87.433 52 85.5 52V56C89.6421 56 93 52.6421 93 48.5H89ZM85.5 45C87.433 45 89 46.567 89 48.5H93C93 44.3579 89.6421 41 85.5 41V45ZM82 48.5C82 46.567 83.567 45 85.5 45V41C81.3579 41 78 44.3579 78 48.5H82ZM85.5 52C83.567 52 82 50.433 82 48.5H78C78 52.6421 81.3579 56 85.5 56V52ZM129.5 56C133.642 56 137 52.6421 137 48.5H133C133 50.433 131.433 52 129.5 52V56ZM122 48.5C122 52.6421 125.358 56 129.5 56V52C127.567 52 126 50.433 126 48.5H122ZM129.5 41C125.358 41 122 44.3579 122 48.5H126C126 46.567 127.567 45 129.5 45V41ZM137 48.5C137 44.3579 133.642 41 129.5 41V45C131.433 45 133 46.567 133 48.5H137ZM121.759 82.5438C123.847 82.1122 125.48 79.9514 124.68 77.6062L120.894 78.8977C120.883 78.8644 120.876 78.8161 120.883 78.7641C120.889 78.7155 120.905 78.6809 120.918 78.6609C120.94 78.625 120.958 78.625 120.949 78.6267L121.759 82.5438ZM121.15 82.6698L121.759 82.5439L120.949 78.6267L120.34 78.7527L121.15 82.6698ZM116.356 79.935C117.039 81.6691 118.921 83.1309 121.15 82.6698L120.34 78.7527C120.339 78.753 120.34 78.7528 120.341 78.7528C120.342 78.7528 120.342 78.7529 120.339 78.7524C120.334 78.7513 120.313 78.7461 120.281 78.7261C120.21 78.6818 120.126 78.5919 120.077 78.4688L116.356 79.935ZM113.395 75.9053C114.73 76.9899 115.743 78.3796 116.356 79.9351L120.077 78.4688C119.211 76.2694 117.783 74.3169 115.918 72.8011L113.395 75.9053ZM107.031 73.5962C109.38 73.6445 111.621 74.4633 113.395 75.9053L115.918 72.8011C113.44 70.7873 110.336 69.6633 107.114 69.5971L107.031 73.5962ZM100.493 75.6524C102.378 74.274 104.683 73.548 107.031 73.5962L107.114 69.5971C103.892 69.5309 100.728 70.5254 98.1318 72.4235L100.493 75.6524ZM97.2177 79.6312C97.9389 78.0736 99.0608 76.6996 100.493 75.6524L98.1318 72.4235C96.1578 73.8671 94.5967 75.7718 93.5879 77.9506L97.2177 79.6312ZM92.3484 82.0854C94.517 82.6307 96.4427 81.305 97.2177 79.6312L93.5879 77.9506C93.5348 78.0654 93.4505 78.1458 93.381 78.1839C93.3496 78.2012 93.33 78.2051 93.3248 78.2059C93.3222 78.2063 93.3219 78.2061 93.3231 78.2061C93.3246 78.2062 93.3251 78.2064 93.3239 78.2061L92.3484 82.0854ZM91.7724 81.9405L92.3484 82.0854L93.3239 78.2061L92.7479 78.0613L91.7724 81.9405ZM89.0965 76.7968C88.1272 79.1206 89.6704 81.4119 91.7724 81.9405L92.7479 78.0613C92.7393 78.0591 92.7576 78.0602 92.7785 78.0978C92.7901 78.1187 92.8041 78.1544 92.8076 78.204C92.8114 78.257 92.8015 78.3049 92.7882 78.3367L89.0965 76.7968ZM95.3864 68.8445C92.5815 70.8956 90.4093 73.6494 89.0965 76.7968L92.7882 78.3367C93.8166 75.8712 95.525 73.6986 97.7475 72.0734L95.3864 68.8445ZM107.266 65.1065C103.004 65.019 98.8187 66.3347 95.3864 68.8445L97.7475 72.0734C100.469 70.0833 103.795 69.0361 107.184 69.1057L107.266 65.1065ZM118.902 69.3398C115.63 66.6808 111.528 65.1941 107.266 65.1065L107.184 69.1057C110.572 69.1753 113.811 70.3568 116.379 72.4441L118.902 69.3398ZM124.68 77.6062C123.581 74.3848 121.586 71.5207 118.902 69.3398L116.379 72.4441C118.484 74.1549 120.039 76.3926 120.894 78.8977L124.68 77.6062Z" fill="#757a82" mask="url(#path-5-inside-2_203_694)"/>
  <path d="M38 137L153 137" stroke="#757a82" stroke-width="2" stroke-linecap="round"/>
  <path d="M13 130H50" stroke="#757a82" stroke-width="2" stroke-linecap="round"/>
  <path d="M62.0352 1L66.245 12.2373" stroke="#757a82" stroke-width="2" stroke-linecap="round"/>
  <path d="M51 7L59.483 15.4875" stroke="#757a82" stroke-width="2" stroke-linecap="round"/>
  <path d="M45 16.6387L55.8294 21.8081" stroke="#757a82" stroke-width="2" stroke-linecap="round"/>
  <path d="M3 137L33 137" stroke="#757a82" stroke-width="2" stroke-linecap="round"/>
  <path d="M164 130H207" stroke="#757a82" stroke-width="2" stroke-linecap="round"/>
  <path d="M174 137H217" stroke="#757a82" stroke-width="2" stroke-linecap="round"/>
  <path d="M159 137H169" stroke="#757a82" stroke-width="2" stroke-linecap="round"/>
  </svg>
  